<svg width="503" height="78" viewBox="0 0 503 78" xmlns="http://www.w3.org/2000/svg"><title>Vector 1</title><desc>Created with Sketch.</desc><g fill="none"><path d="M134.7 35.8V.4h-14.5l-27.7 34v14.1h27.1v13.8h15.1V48.5h8.1V35.7h-8.1v.1zm-30.5 0l15.6-20h.2v20h-15.8zm142.7-19.2l-18.2 50.2c-3.6 10.1-9.1 11.4-19.3 11.4h-7.1V66h5.2c3.5 0 6-2 6-5.2 0-2.5-2.9-9.6-3.8-12.1l-11.9-32.1h16l8.7 30h.2l8.7-30h15.5zm17.8 25.1c0-5.7 4-10.3 9.7-10.3 6.8 0 10.6 4.6 10.6 10.4 0 5.1-4.2 9.5-10.5 9.5-5.9 0-9.8-4.3-9.8-9.6zm33.6-24.8C296.3 5.6 287.7 0 276.7 0c-18.8 0-27.1 14.8-27.1 32.2 0 15.8 6.4 31.4 24.7 31.4 13.5 0 24.8-8.1 24.8-22.8 0-11.3-8.7-20.4-20.1-20.4-5.9 0-11.4 1.4-14.5 6.6h-.2c.4-7 3.6-15.7 12.4-15.7 1.3 0 2.9.2 4.4 1 1.4.9 2.6 2.3 3.1 4.8h14.1v-.2zm-122.2-1.5c-5.7 0-10 2.1-13.2 6.4h-.2V.4h-15.1v35.3h8.1v13h-8.1v14.1H162v-5.3h.2c2.9 4.4 7.4 6.7 12.7 6.7 14.5 0 20.6-12.4 20.6-25.4.1-12.1-6.3-23.4-19.4-23.4zm-4.7 37.2c-6.8 0-9.2-5.2-9.2-13.3 0-9.5 5.2-12.4 9.2-12.4 6.7 0 9 6.5 9 12.4.1 6.3-2.2 13.3-9 13.3zm199-19.1h-14.7c-.1-3.9-3.6-6.7-7.4-6.7-8.4 0-9.8 7.2-9.8 13.6 0 6 2.6 12.1 9 12.1 5.2 0 7.9-3 8.6-7.9h14.7c-1.3 12.4-10.9 19.5-23.2 19.5-13.9 0-24.2-9.5-24.2-23.6 0-14.7 9.3-25.2 24.2-25.2 11.5 0 21.8 6 22.8 18.2zm20.7 6.2c0-5.9 2.1-12.9 9.2-12.9 7 0 9.2 7 9.2 12.9s-2.2 12.8-9.2 12.8c-7.1 0-9.2-6.9-9.2-12.8zm-15.1 0c0 13.9 10 24.4 24.3 24.4s24.4-10.5 24.4-24.4c0-13.9-10-24.4-24.4-24.4-14.4 0-24.3 10.6-24.3 24.4zm54.5 23.1V16.7h14.7V23h.2c2.8-4.6 7.6-7.6 13.2-7.6 5.8 0 10.9 1.9 13.4 7.5 3.6-4.9 8.2-7.5 14.4-7.5 14.7 0 16.3 11.1 16.3 19.9v27.6h-15.1V35.8c0-5-2.4-7.9-6.3-7.9-6.5 0-7.1 5-7.1 12.4v22.6H459V36.7c0-5.4-1.6-8.8-5.7-8.8-5.4 0-7.7 3.1-7.7 12.5v22.5h-15.1v-.1zm-125-1.2v-13h13v13h-13z" id="Shape" fill="#999"/><path d="M13 61.7h13v-13H13v13z" id="Shape" fill="#FF7F00"/><path d="M38.9 48.7h13v-13h-13v13z" id="Shape" fill="#33701F"/><path d="M51.9 35.7h13V22.8h-13v12.9z" id="Shape" fill="#FFB300"/><path d="M0 48.7h13v-13H0v13z" id="Shape" fill="#1E78B4"/><path d="M26 22.8h12.9v-13H26v13z" id="Shape" fill="#8054A6"/><path d="M64.9 48.7h13v-13h-13v13z" fill="#f30"/></g></svg>