<?xml version="1.0" encoding="UTF-8" standalone="no"?>
<svg width="503px" height="78px" viewBox="0 0 503 78" version="1.1" xmlns="http://www.w3.org/2000/svg" xmlns:xlink="http://www.w3.org/1999/xlink" xmlns:sketch="http://www.bohemiancoding.com/sketch/ns">
    <!-- Generator: Sketch 3.1.1 (8761) - http://www.bohemiancoding.com/sketch -->
    <title>Vector 1</title>
    <desc>Created with Sketch.</desc>
    <defs></defs>
    <g id="Page-1" stroke="none" stroke-width="1" fill="none" fill-rule="evenodd" sketch:type="MSPage">
        <g id="4by6-logo" sketch:type="MSLayerGroup">
            <path d="M134.7,35.8 L134.7,0.4 L120.2,0.4 L92.5,34.4 L92.5,48.5 L119.6,48.5 L119.6,62.3 L134.7,62.3 L134.7,48.5 L142.8,48.5 L142.8,35.7 L134.7,35.7 L134.7,35.8 L134.7,35.8 Z M104.2,35.8 L119.8,15.8 L120,15.8 L120,35.8 L104.2,35.8 L104.2,35.8 Z M246.9,16.6 L246.9,16.6 L228.7,66.8 C225.1,76.9 219.6,78.2 209.4,78.2 L202.3,78.2 L202.3,66 L207.5,66 C211,66 213.5,64 213.5,60.8 C213.5,58.3 210.6,51.2 209.7,48.7 L197.8,16.6 L213.8,16.6 L222.5,46.6 L222.7,46.6 L231.4,16.6 L246.9,16.6 L246.9,16.6 L246.9,16.6 Z M264.7,41.7 C264.7,36 268.7,31.4 274.4,31.4 C281.2,31.4 285,36 285,41.8 C285,46.9 280.8,51.3 274.5,51.3 C268.6,51.3 264.7,47 264.7,41.7 L264.7,41.7 L264.7,41.7 Z M298.3,16.9 C296.3,5.6 287.7,0 276.7,0 C257.9,0 249.6,14.8 249.6,32.2 C249.6,48 256,63.6 274.3,63.6 C287.8,63.6 299.1,55.5 299.1,40.8 C299.1,29.5 290.4,20.4 279,20.4 C273.1,20.4 267.6,21.8 264.5,27 L264.3,27 C264.7,20 267.9,11.3 276.7,11.3 C278,11.3 279.6,11.5 281.1,12.3 C282.5,13.2 283.7,14.6 284.2,17.1 L298.3,17.1 L298.3,16.9 L298.3,16.9 Z M176.1,15.4 C170.4,15.4 166.1,17.5 162.9,21.8 L162.7,21.8 L162.7,0.4 L147.6,0.4 L147.6,35.7 L155.7,35.7 L155.7,48.7 L147.6,48.7 L147.6,62.8 L162,62.8 L162,57.5 L162.2,57.5 C165.1,61.9 169.6,64.2 174.9,64.2 C189.4,64.2 195.5,51.8 195.5,38.8 C195.6,26.7 189.2,15.4 176.1,15.4 L176.1,15.4 L176.1,15.4 Z M171.4,52.6 C164.6,52.6 162.2,47.4 162.2,39.3 C162.2,29.8 167.4,26.9 171.4,26.9 C178.1,26.9 180.4,33.4 180.4,39.3 C180.5,45.6 178.2,52.6 171.4,52.6 L171.4,52.6 L171.4,52.6 Z M370.4,33.5 L370.4,33.5 L355.7,33.5 C355.6,29.6 352.1,26.8 348.3,26.8 C339.9,26.8 338.5,34 338.5,40.4 C338.5,46.4 341.1,52.5 347.5,52.5 C352.7,52.5 355.4,49.5 356.1,44.6 L370.8,44.6 C369.5,57 359.9,64.1 347.6,64.1 C333.7,64.1 323.4,54.6 323.4,40.5 C323.4,25.8 332.7,15.3 347.6,15.3 C359.1,15.3 369.4,21.3 370.4,33.5 L370.4,33.5 L370.4,33.5 Z M391.1,39.7 C391.1,33.8 393.2,26.8 400.3,26.8 C407.3,26.8 409.5,33.8 409.5,39.7 C409.5,45.6 407.3,52.5 400.3,52.5 C393.2,52.5 391.1,45.6 391.1,39.7 L391.1,39.7 L391.1,39.7 Z M376,39.7 C376,53.6 386,64.1 400.3,64.1 C414.6,64.1 424.7,53.6 424.7,39.7 C424.7,25.8 414.7,15.3 400.3,15.3 C385.9,15.3 376,25.9 376,39.7 L376,39.7 L376,39.7 Z M430.5,62.8 L430.5,62.8 L430.5,16.7 L445.2,16.7 L445.2,23 L445.4,23 C448.2,18.4 453,15.4 458.6,15.4 C464.4,15.4 469.5,17.3 472,22.9 C475.6,18 480.2,15.4 486.4,15.4 C501.1,15.4 502.7,26.5 502.7,35.3 L502.7,62.9 L487.6,62.9 L487.6,35.8 C487.6,30.8 485.2,27.9 481.3,27.9 C474.8,27.9 474.2,32.9 474.2,40.3 L474.2,62.9 L459,62.9 L459,36.7 C459,31.3 457.4,27.9 453.3,27.9 C447.9,27.9 445.6,31 445.6,40.4 L445.6,62.9 L430.5,62.9 L430.5,62.8 L430.5,62.8 Z M305.5,61.6 L305.5,61.6 L305.5,48.6 L318.5,48.6 L318.5,61.6 L305.5,61.6 L305.5,61.6 Z" id="Shape" fill="#999999" sketch:type="MSShapeGroup"></path>
            <path d="M13,61.7 L26,61.7 L26,48.7 L13,48.7 L13,61.7 L13,61.7 Z" id="Shape" fill="#FF7F00" sketch:type="MSShapeGroup"></path>
            <path d="M38.9,48.7 L51.9,48.7 L51.9,35.7 L38.9,35.7 L38.9,48.7 L38.9,48.7 Z" id="Shape" fill="#33701F" sketch:type="MSShapeGroup"></path>
            <path d="M51.9,35.7 L64.9,35.7 L64.9,22.8 L51.9,22.8 L51.9,35.7 L51.9,35.7 Z" id="Shape" fill="#FFB300" sketch:type="MSShapeGroup"></path>
            <path d="M0,48.7 L13,48.7 L13,35.7 L0,35.7 L0,48.7 L0,48.7 Z" id="Shape" fill="#1E78B4" sketch:type="MSShapeGroup"></path>
            <path d="M26,22.8 L38.9,22.8 L38.9,9.8 L26,9.8 L26,22.8 L26,22.8 Z" id="Shape" fill="#8054A6" sketch:type="MSShapeGroup"></path>
            <path d="M64.9,48.7 L77.9,48.7 L77.9,35.7 L64.9,35.7 L64.9,48.7 L64.9,48.7 Z" id="Shape" fill="#FF3300" sketch:type="MSShapeGroup"></path>
        </g>
    </g>
</svg>